<svg width="457" height="159" viewBox="0 0 457 159" fill="none" xmlns="http://www.w3.org/2000/svg">
<path d="M238.697 86.9242C221.73 60.5056 241.448 42.0908 260.703 43.0347C279.958 43.9785 290.679 63.3363 275.369 92.1241C264.37 112.804 250.611 131.758 236.863 129.87C222.421 127.887 225.857 90.2277 296 127.038" stroke="black" stroke-width="10" stroke-linecap="round"/>
<path d="M67.8289 89.9242C50.6047 63.5056 70.6213 45.0908 90.1679 46.0347C109.715 46.9785 120.599 66.3363 105.056 95.1241C93.8911 115.804 79.9237 134.758 65.9669 132.87C51.3063 130.887 54.7944 93.2277 126 130.038" stroke="black" stroke-width="10" stroke-linecap="round"/>
<path d="M320.125 86.4635C308.937 58.1207 329.912 40.5378 349.491 43.2806C369.07 46.0234 380.257 66.5946 364.874 84.4228C349.491 102.251 340.636 79.6067 354.621 75.4925C369.02 71.2564 399.008 78.2353 397.974 101.549C397.042 122.577 372.801 140.863 317.327 119.377" stroke="black" stroke-width="10" stroke-linecap="round"/>
<path d="M201.428 117.064C201.428 117.064 226.145 71.6491 191.636 50.8001C178.434 42.8245 148.584 41.5276 137.537 73.0394C123.079 114.281 174.379 155.991 191.636 109.65" stroke="black" stroke-width="10" stroke-linecap="round"/>
</svg>
