<svg width="105" height="55" viewBox="0 0 105 55" fill="none" xmlns="http://www.w3.org/2000/svg">
<path fill-rule="evenodd" clip-rule="evenodd" d="M39.4561 2.6089C39.9487 4.47808 38.8327 6.39267 36.9635 6.88525C28.1562 9.20622 22.2245 12.3601 18.3329 15.7764C19.5635 15.2015 20.8201 14.6917 22.0905 14.255C27.7491 12.3099 34.019 11.7051 39.613 13.6474C45.3813 15.6501 49.966 20.2068 52.25 27.5746C54.8178 35.8581 50.5764 45.1074 43.6108 50.3564C36.3422 55.8337 25.7763 57.3274 15.2959 50.0811C11.9253 47.7505 8.85685 44.0531 6.88987 39.626C6.50156 41.1359 5.13105 42.2517 3.49995 42.2516C1.56695 42.2516 -5.4416e-05 40.6846 -4.69556e-05 38.7516C-2.44652e-05 34.2016 1.9713 29.8869 4.85811 26.2112C4.88475 26.0119 4.91404 25.8123 4.94605 25.6126C6.64525 15.0079 15.6476 5.26358 35.1797 0.116341C37.0489 -0.376239 38.9635 0.73972 39.4561 2.6089ZM11.6564 29.0247C11.5497 35.4435 15.1585 41.4758 19.2769 44.3233C27.1755 49.7845 34.4407 48.5017 39.3981 44.766C44.6585 40.8019 47.0378 34.4019 45.5639 29.6473C43.881 24.2187 40.8064 21.4716 37.3171 20.2601C33.6535 18.9882 29.0675 19.2587 24.3661 20.8748C19.6915 22.4817 15.2369 25.3115 11.9964 28.666C11.8811 28.7854 11.7678 28.9049 11.6564 29.0247ZM83.314 30.0521C78.734 29.8997 75.1476 30.0583 71.2551 30.9184C69.3676 31.3354 67.4994 30.1434 67.0824 28.2559C66.6653 26.3685 67.8573 24.5003 69.7448 24.0832C74.4475 23.0441 78.6934 22.8921 83.6065 23.058C83.6901 23.0608 83.774 23.0637 83.8581 23.0667C84.06 19.5899 84.0965 15.9275 83.6335 11.9006C83.4127 9.98022 84.7905 8.24449 86.7108 8.0237C88.6312 7.80292 90.3669 9.18068 90.5877 11.101C91.1076 15.6233 91.0627 19.7255 90.8494 23.433C90.9584 23.4396 91.0678 23.4462 91.1777 23.4528L91.619 23.4793C94.5679 23.6568 97.851 23.8509 101.641 24.0036C103.572 24.0814 105.075 25.7103 104.997 27.6417C104.919 29.5731 103.29 31.0758 101.359 30.998C97.4946 30.8423 94.1519 30.6444 91.1986 30.4667L90.7973 30.4426C90.6333 30.4327 90.4705 30.4229 90.3091 30.4132C89.9456 34.8691 89.7756 38.4042 90.5251 41.7318C90.9498 43.6175 89.7654 45.4905 87.8796 45.9153C85.9939 46.34 84.1208 45.1556 83.6961 43.2698C82.7134 38.9066 82.9545 34.4426 83.314 30.0521Z" fill="black"/>
</svg>
