<svg width="289" height="289" viewBox="0 0 289 289" fill="none" xmlns="http://www.w3.org/2000/svg">
<path d="M245.362 47L280.145 75.1085L225.145 84" stroke="black" stroke-width="7" stroke-linecap="round"/>
<path d="M150.378 85.7136C49.8913 148.875 0.605098 346.577 68.7497 212.592C123.265 105.405 150.378 85.7136 150.378 85.7136Z" stroke="black" stroke-width="7" stroke-linecap="round"/>
<path d="M150.746 85.8645C60.2922 158.368 52.2061 384.545 92.7918 235.663C125.26 116.557 150.746 85.8645 150.746 85.8645Z" stroke="black" stroke-width="7" stroke-linecap="round"/>
<path d="M168.729 59.5279C132.436 91.8893 163.882 104.496 176.774 103.985C229.497 101.896 263.494 45.3697 229.497 16.7537C195.615 -11.7647 133.589 8.09639 145.686 70.7965" stroke="black" stroke-width="7" stroke-linecap="round"/>
<path d="M176.145 104L178.145 185" stroke="black" stroke-width="7" stroke-linecap="round"/>
<path d="M186.531 103.889L195.998 191" stroke="black" stroke-width="7" stroke-linecap="round"/>
<path d="M206.089 32.638C231.471 26.8697 206.09 51.3864 209.55 30.042" stroke="black" stroke-width="7" stroke-linecap="round"/>
</svg>
