<svg width="406" height="190" viewBox="0 0 406 190" fill="none" xmlns="http://www.w3.org/2000/svg">
<path d="M312.926 74C312.926 74 314.12 105.724 317.105 124.758C320.098 143.842 326.831 181.619 322.479 185.486C318.128 189.352 312.633 170.74 311.435 152.554C310.241 134.426 310.087 89.5283 330.539 82.7617C344.48 78.1491 358 85.7887 358 99.9831C358 114.215 344.48 121.132 326.658 112.975" stroke="black" stroke-width="7" stroke-linecap="round"/>
<path d="M100 99.3007C100 99.3007 101.088 108.765 107.874 114.109C113.251 118.343 124.858 117.972 131.362 112.695C138.996 106.501 142.106 91.5437 132.21 84.194C121.465 76.2143 105.765 84.334 107.179 95.9126C108.593 107.491 124.547 120.625 144 107.988" stroke="black" stroke-width="7" stroke-linecap="round"/>
<path d="M202 82V110.84M202 118V110.84M202 110.84L231 118M202 110.84L231 82" stroke="black" stroke-width="7" stroke-linecap="round"/>
<path d="M4 4V122L16.3918 100.026M16.3918 100.026L68.3769 4M16.3918 100.026L85 122" stroke="black" stroke-width="7" stroke-linecap="round"/>
<path d="M158 82V103.434V118" stroke="black" stroke-width="7" stroke-linecap="round"/>
<path d="M185 82L183 117" stroke="black" stroke-width="7" stroke-linecap="round"/>
<path d="M160 100H184" stroke="black" stroke-width="7" stroke-linecap="round"/>
<path d="M248.931 82C238.925 108.43 249.859 114.226 254.946 115.176C266.674 117.365 285.407 100.728 284.116 90.0921C283.133 82 274.949 81.0673 271.85 85.902C266.686 93.9598 270.628 112.921 273.533 119.69C276.65 126.952 288.38 159.334 280.634 174.483C273.912 187.628 251.261 189.309 242.869 180.607C231.137 168.441 235.768 155.144 246.742 145.153C257.717 135.161 289.026 121.671 300 115.177" stroke="black" stroke-width="7" stroke-linecap="round"/>
<path d="M393.22 83.6489C380.183 77.1624 368.681 90.9455 371.402 105.27C374.124 119.595 393.752 120.946 402 108.514" stroke="black" stroke-width="7" stroke-linecap="round"/>
</svg>
