<svg width="608" height="169" viewBox="0 0 608 169" fill="none" xmlns="http://www.w3.org/2000/svg">
<path d="M184.762 63C184.762 63 185.855 91.8911 188.586 109.226C191.324 126.606 197.483 161.01 193.502 164.531C189.521 168.053 184.494 151.102 183.398 134.54C182.306 118.031 182.165 77.1418 200.876 70.9794C213.63 66.7787 226 73.7361 226 86.6632C226 99.6243 213.63 105.924 197.326 98.4947" stroke="black" stroke-width="7" stroke-linecap="round"/>
<path d="M508.333 71.7976C507.334 83.5772 508 106.232 518.658 102.613C531.981 98.0897 541 77.0807 541 73.6883C541 69.1298 533.339 68.0343 533.006 74.8195C532.738 80.2851 536.448 98.2782 541 102.613" stroke="black" stroke-width="7" stroke-linecap="round"/>
<path d="M291 84.7916C294.298 71.3091 301.602 69.6177 305.206 70.0608C309.264 70.5599 311.328 74.0037 312.285 77.4552C313.152 80.5866 314.845 94.2793 313.323 100.521C312.087 105.59 309.772 107.762 307.489 106.763C304.634 105.514 305.459 98.7731 307.235 94.5286C309.011 90.2842 316.367 77.5508 320.933 77.0515C325.499 76.5521 324.992 82.2946 324.485 86.7891C324.023 90.8816 321.439 99.0532 324.738 100.271C328.797 101.769 333.11 95.278 336.154 91.0335C339.198 86.7891 347.029 73.3647 342.749 71.5589C339.198 70.0606 338.183 76.3024 338.183 81.0462C338.183 84.8413 340.043 97.3583 341.227 102.269" stroke="black" stroke-width="7" stroke-linecap="round"/>
<path d="M375.241 103.061C403.629 95.2097 394.81 71 377.805 71C371.081 71 363.448 73.1939 358.98 81.1317C352.281 93.0331 358.538 103.025 361.61 107.131C368.35 116.141 381.492 125.307 388.696 139.43C392.326 146.547 394.002 150.435 392.329 156.665C390.933 161.866 383.095 168.187 376.344 163.163C367.248 156.394 379.927 140.963 389.533 128.481C399.14 116 407 98.6471 407 98.6471" stroke="black" stroke-width="7" stroke-linecap="round"/>
<path d="M169 75.4412L139 70L142.387 107" stroke="black" stroke-width="7" stroke-linecap="round"/>
<path d="M269.753 79.1426C248.812 56.2791 231.634 87.6448 240.294 99.0074C245.419 105.732 256.833 104.543 265.139 100.809C271.456 97.9682 275.219 93.1877 275.432 90.832C275.645 88.4764 273.799 87.4576 272.379 87.6448C271.102 87.8134 269.753 88.6842 269.753 90.6934C269.753 92.7027 272.024 96.5131 276.638 98.176C284.802 101.118 280.583 109.961 286 115" stroke="black" stroke-width="7" stroke-linecap="round"/>
<path d="M112.753 80.6575C91.8122 57.3783 74.6337 87.1475 83.2939 98.7166C88.4192 105.563 99.8335 104.353 108.139 100.551C114.456 97.6586 118.219 92.7911 118.432 90.3926C118.645 87.9941 116.799 86.9568 115.379 87.1475C114.102 87.3191 112.753 88.2058 112.753 90.2515C112.753 92.2973 115.024 96.177 119.638 97.8701C127.802 100.866 123.583 109.87 129 115" stroke="black" stroke-width="7" stroke-linecap="round"/>
<path d="M554 75.5391C568.873 91.8858 590.122 83.7125 586.911 74.3726C585.189 69.3621 575.153 69.4633 570.016 77.8899C564.693 86.622 567.527 97.0531 575.519 101.227C583.258 105.269 599.253 103.27 604 86.0477" stroke="black" stroke-width="7" stroke-linecap="round"/>
<path d="M407 74.6809C421.873 91.5385 443.122 83.1097 439.911 73.478C438.189 68.3109 428.153 68.4153 423.016 77.1052C417.693 86.1102 420.527 96.8673 428.519 101.171C436.258 105.34 452.253 103.279 457 85.5179" stroke="black" stroke-width="7" stroke-linecap="round"/>
<path d="M4 4L4 107" stroke="black" stroke-width="7" stroke-linecap="round"/>
<path d="M63 4V107" stroke="black" stroke-width="7" stroke-linecap="round"/>
<path d="M20 57L70 50" stroke="black" stroke-width="7" stroke-linecap="round"/>
<path d="M469 71V90.052V103" stroke="black" stroke-width="7" stroke-linecap="round"/>
<path d="M495 71L493 103" stroke="black" stroke-width="7" stroke-linecap="round"/>
<path d="M472 88H493" stroke="black" stroke-width="7" stroke-linecap="round"/>
</svg>
