<svg width="1876" height="4866" viewBox="0 0 1876 4866" fill="none" xmlns="http://www.w3.org/2000/svg">
<path d="M4.00024 4C207.638 40.5166 266.753 506.027 632.041 352.171C997.33 198.315 929.199 618.434 839.253 519.208C777.187 450.74 966.476 241.869 1329.86 286.625C1799.11 344.418 2110.95 898.94 1634.5 1284C1366 1501 1634.5 1930.5 1079.5 1748C823.4 1663.79 398.5 1451 238 1673.5C77.5 1896 400.797 2206.31 601.001 2337.5C923 2548.5 965.602 2753.5 874.5 2958C754.886 3226.5 230.909 3210.47 129 3614C54.5 3909 895.5 3737.5 711.5 3935.5C366.667 4306.57 1677.5 4060 1707 4302.5C1735.42 4536.15 1171.5 4647 1121 4862.5" stroke="black" stroke-width="7" stroke-linecap="round"/>
</svg>
