<svg width="1876" height="4866" viewBox="0 0 1876 4866" fill="none" xmlns="http://www.w3.org/2000/svg">
<path d="M4.00024 4C207.638 40.5166 266.753 506.027 632.041 352.171C997.33 198.315 929.199 618.434 839.253 519.208C777.187 450.74 966.476 241.869 1329.86 286.625C1799.11 344.418 2110.95 898.94 1634.5 1284C1366 1501 1542 1891 987 1708.5C730.899 1624.29 398.5 1451 238 1673.5C77.5 1896 409.038 2194.52 601.001 2337.5C864.076 2533.44 1041.15 2740.47 857 2978.5C722 3153 907.214 3195.13 924 3114C960 2940 176.222 3228.12 226.5 3581.5C261.5 3827.5 895.5 3737.5 711.5 3935.5C366.667 4306.57 1624.5 4053.5 1654 4296C1682.42 4529.65 1171.5 4647 1121 4862.5" stroke="black" stroke-width="7" stroke-linecap="round"/>
</svg>
