<svg width="1855" height="4822" viewBox="0 0 1855 4822" fill="none" xmlns="http://www.w3.org/2000/svg">
<path d="M-16.9998 4C186.638 40.5166 245.753 506.027 611.041 352.171C976.33 198.315 908.199 618.434 818.253 519.208C756.187 450.74 945.476 241.869 1308.86 286.625C1778.11 344.418 2089.95 898.94 1613.5 1284C1345 1501 1613.5 1930.5 1058.5 1748C802.4 1663.79 377.5 1451 217 1673.5C56.5 1896 379.797 2206.31 580.001 2337.5C902 2548.5 944.602 2753.5 853.5 2958C733.886 3226.5 209.909 3210.47 108 3614C33.5 3909 874.5 3737.5 690.5 3935.5C345.667 4306.57 1656.5 4060 1686 4302.5C1714.42 4536.15 1150.5 4647 1100 4862.5" stroke="black" stroke-width="7" stroke-linecap="round"/>
</svg>
