<svg width="915" height="201" viewBox="0 0 915 201" fill="none" xmlns="http://www.w3.org/2000/svg">
<path d="M873.566 112.86C874.21 117.01 877.522 124.869 885.627 123.111C895.759 120.915 916.745 94.5548 900.342 92.1139C888.133 90.2971 891.899 110.664 904.443 121.159C914.477 129.555 909.91 135.641 906.614 138" stroke="black" stroke-width="7" stroke-linecap="round"/>
<path d="M409.566 111.046C410.175 114.835 413.309 122.011 420.975 120.406C430.559 118.4 450.411 94.3326 434.895 92.104C423.346 90.4452 426.908 109.041 438.774 118.623C448.266 126.29 443.946 131.846 440.827 134" stroke="black" stroke-width="7" stroke-linecap="round"/>
<path d="M232.07 93C227.698 113.683 228.648 123.244 238.153 126.171C246.238 128.661 265.716 115.244 255.831 104.512C251.851 100.191 244.77 103.648 243.855 110.756C242.525 121.098 254.12 133 254.12 133" stroke="black" stroke-width="7" stroke-linecap="round"/>
<path d="M729.411 90C729.411 90 730.554 120.307 733.412 138.492C736.277 156.724 742.723 192.815 738.557 196.509C734.391 200.202 729.13 182.421 727.983 165.047C726.84 147.728 726.693 104.835 746.274 98.3706C759.622 93.9639 772.566 101.262 772.566 114.823C772.566 128.42 759.622 135.028 742.558 127.235" stroke="black" stroke-width="7" stroke-linecap="round"/>
<path d="M131.566 111.582C131.566 111.582 134.428 119.356 140.83 124.382C145.902 128.365 157.508 127.774 163.643 122.811C170.846 116.985 173.78 102.917 164.444 96.0041C154.307 88.4988 139.496 96.1358 140.83 107.026C142.163 117.916 157.215 130.269 175.566 118.384" stroke="black" stroke-width="7" stroke-linecap="round"/>
<path d="M621.566 94V121.238M621.566 128V121.238M621.566 121.238L648.566 128M621.566 121.238L648.566 94" stroke="black" stroke-width="7" stroke-linecap="round"/>
<path d="M543.566 94V121.238M543.566 128V121.238M543.566 121.238L570.566 128M543.566 121.238L570.566 94" stroke="black" stroke-width="7" stroke-linecap="round"/>
<path d="M827.889 93.9065C826.92 106.4 827.566 130.428 837.902 126.59C850.82 121.792 859.566 99.5098 859.566 95.9119C859.566 91.077 852.138 89.9152 851.815 97.1116C851.555 102.908 855.152 121.992 859.566 126.59" stroke="black" stroke-width="7" stroke-linecap="round"/>
<path d="M383.574 99.6466C361.848 75.5614 346.162 108.183 355.147 120.153C360.464 127.237 372.306 125.984 380.923 122.051C387.478 119.058 391.381 114.022 391.602 111.541C391.823 109.059 389.908 107.986 388.435 108.183C387.109 108.361 385.71 109.278 385.71 111.395C385.71 113.511 388.067 117.525 392.854 119.277C401.323 122.376 396.946 131.692 402.566 137" stroke="black" stroke-width="7" stroke-linecap="round"/>
<path d="M87.4769 11.5178C87.4769 11.5178 76.5536 21.5532 58.1704 30.8604C44.1205 37.9738 32.4034 38.3516 28.4198 37.4496C23.713 36.3839 18.0043 32.176 20.4271 28.1249C22.9659 23.8799 29.4945 27.1482 33.4818 32.0327C39.3451 39.215 44.1388 59.8293 46.4478 85.1926C48.6649 109.546 60.3136 129.865 79.7507 129.188C105.238 128.3 116.251 114.18 121.313 102.812C126.116 92.025 130.46 72.44 114.83 54.6784C99.1428 36.8524 71.9865 42.3827 62.3444 46.2417C52.7022 50.1007 38.9543 56.8456 31.8833 82.2977C25.4273 105.536 31.7785 135.301 35.9684 143.486" stroke="black" stroke-width="7" stroke-linecap="round"/>
<path d="M187.566 129L204.174 95L218.566 129" stroke="black" stroke-width="7" stroke-linecap="round"/>
<path d="M664.891 94C655.354 119.413 665.776 124.986 670.624 125.9C681.802 128.005 699.657 112.008 698.427 101.781C697.49 94 689.69 93.1032 686.736 97.7519C681.814 105.5 685.571 123.732 688.34 130.24C691.311 137.224 702.491 168.36 695.108 182.926C688.701 195.565 667.112 197.182 659.114 188.814C647.931 177.116 652.345 164.331 662.805 154.724C673.265 145.116 703.107 132.146 713.566 125.901" stroke="black" stroke-width="7" stroke-linecap="round"/>
<path d="M806.069 95.5546C793.453 89.4388 782.322 102.434 784.956 115.941C787.59 129.447 806.584 130.721 814.566 118.999" stroke="black" stroke-width="7" stroke-linecap="round"/>
<path d="M599.636 95.5546C587.86 89.4388 577.472 102.434 579.93 115.941C582.388 129.447 600.117 130.721 607.566 118.999" stroke="black" stroke-width="7" stroke-linecap="round"/>
<path d="M283.267 93.2163C271.116 101.681 268.68 125.583 285.876 126.931C301.493 128.155 319.311 96.6598 303.882 93.2163C288.793 89.8484 293.103 126.931 310.462 126.931C336.836 126.931 345.336 93.2163 329.845 93.2163C316.537 93.2163 320.314 126.934 333.9 129" stroke="black" stroke-width="7" stroke-linecap="round"/>
<path d="M503.566 97.2117C529.31 81.0892 544.603 131.017 507.135 128.937" stroke="black" stroke-width="7" stroke-linecap="round"/>
<path d="M504.566 110H528.566" stroke="black" stroke-width="7" stroke-linecap="round"/>
</svg>
