<svg width="615" height="181" viewBox="0 0 615 181" fill="none" xmlns="http://www.w3.org/2000/svg">
<path d="M576.644 82C564.834 100.789 570.739 111.168 579.121 112.242C587.502 113.316 598.931 100.789 595.312 96.1368C591.971 91.8421 585.407 95.8245 585.407 102.4C585.407 108.663 589.597 116 589.597 116" stroke="black" stroke-width="7" stroke-linecap="round"/>
<path d="M608.603 83C606.805 96.0604 609.452 109.108 611 114" stroke="black" stroke-width="7" stroke-linecap="round"/>
<path d="M159 115V83" stroke="black" stroke-width="7" stroke-linecap="round"/>
<path d="M514.803 77C514.803 77 515.921 105.325 518.716 122.319C521.517 139.359 527.82 173.088 523.747 176.541C519.673 179.993 514.528 163.375 513.407 147.137C512.29 130.952 512.146 90.8645 531.291 84.823C544.343 80.7046 557 87.5256 557 100.199C557 112.906 544.343 119.082 527.659 111.799" stroke="black" stroke-width="7" stroke-linecap="round"/>
<path d="M460 99.2658C460 99.2658 463.541 105.806 469.681 110.536C474.547 114.284 485.679 113.728 491.564 109.057C498.472 103.574 501.286 90.3336 492.331 83.8274C482.609 76.7635 468.402 83.9513 469.681 94.201C470.961 104.451 485.398 116.077 503 104.891" stroke="black" stroke-width="7" stroke-linecap="round"/>
<path d="M232.323 83.7431C231.354 95.1658 232 117.134 242.335 113.625C255.254 109.238 264 88.8661 264 85.5766C264 81.1561 256.572 80.0939 256.249 86.6735C255.988 91.9734 259.586 109.421 264 113.625" stroke="black" stroke-width="7" stroke-linecap="round"/>
<path d="M459 13C453.373 21.3445 422.016 25.653 417.15 39.3687C414.283 47.4519 419.898 55.1994 426.646 60.397C432.515 64.9186 447.49 72.9642 449.546 86.3737C450.84 94.8111 444.134 109.273 429.918 112.642C422.304 114.447 410 112.679 410 100.608C410 91.9437 418.588 82.0414 429.918 86.3737C443.901 91.7207 441.907 113.514 435.07 141" stroke="black" stroke-width="7" stroke-linecap="round"/>
<path d="M278 86.5391C293.171 102.886 314.844 94.7125 311.57 85.3726C309.813 80.3621 299.576 80.4633 294.337 88.8899C288.907 97.622 291.798 108.053 299.949 112.227C307.843 116.269 324.158 114.27 329 97.0477" stroke="black" stroke-width="7" stroke-linecap="round"/>
<path d="M88 87.6809C103.171 104.539 124.844 96.1097 121.57 86.478C119.813 81.3109 109.576 81.4153 104.337 90.1052C98.9073 99.1102 101.798 109.867 109.949 114.171C117.843 118.34 134.158 116.279 139 98.5179" stroke="black" stroke-width="7" stroke-linecap="round"/>
<path d="M4 118L64.6936 12L74 118" stroke="black" stroke-width="7" stroke-linecap="round"/>
<path d="M192 83V102.052V115" stroke="black" stroke-width="7" stroke-linecap="round"/>
<path d="M218 83L215 114" stroke="black" stroke-width="7" stroke-linecap="round"/>
<path d="M194 99H216" stroke="black" stroke-width="7" stroke-linecap="round"/>
<path d="M142 83H176" stroke="black" stroke-width="7" stroke-linecap="round"/>
<path d="M390.786 83.4604C378.59 77.7153 367.831 89.9232 370.376 102.611C372.922 115.298 391.284 116.495 399 105.484" stroke="black" stroke-width="7" stroke-linecap="round"/>
</svg>
