<svg width="653" height="190" viewBox="0 0 653 190" fill="none" xmlns="http://www.w3.org/2000/svg">
<path d="M614.156 81C601.437 102 607.796 113.6 616.822 114.8C625.848 116 638.156 102 634.259 96.8C630.661 92 623.592 96.4509 623.592 103.8C623.592 110.8 628.105 119 628.105 119" stroke="black" stroke-width="7" stroke-linecap="round"/>
<path d="M510.59 79C506.067 100.2 507.05 110 516.882 113C525.247 115.552 545.396 101.8 535.17 90.8C531.053 86.3704 523.728 89.9141 522.782 97.2C521.405 107.8 533.401 120 533.401 120" stroke="black" stroke-width="7" stroke-linecap="round"/>
<path d="M646.603 81C644.805 95.3243 647.452 109.635 649 115" stroke="black" stroke-width="7" stroke-linecap="round"/>
<path d="M24.9733 4C-1.46564 22.0033 -8.98639 89.0659 38.7857 83.1525C64.9427 79.9148 76.6833 63.462 84.5214 50.0006C91.0447 38.7971 92.5681 14.4025 84.5214 10.5137C77.1949 6.97287 68.7833 11.7906 68.1755 26.0691C67.5677 40.3476 80.8747 63.9076 84.5214 83.1525C86.1321 91.6527 88.1682 114.814 72.6695 118.849C51.7208 124.303 44.4073 108.606 44.4073 108.606" stroke="black" stroke-width="7" stroke-linecap="round"/>
<path d="M321.926 75C321.926 75 323.12 106.44 326.105 125.304C329.098 144.218 335.831 181.658 331.479 185.49C327.128 189.322 321.633 170.876 320.435 152.852C319.241 134.886 319.087 90.3896 339.539 83.6835C353.48 79.1121 367 86.6835 367 100.751C367 114.856 353.48 121.711 335.658 113.627" stroke="black" stroke-width="7" stroke-linecap="round"/>
<path d="M104.926 74C104.926 74 106.12 105.724 109.105 124.758C112.098 143.842 118.831 181.619 114.479 185.486C110.128 189.352 104.633 170.74 103.435 152.554C102.241 134.426 102.087 89.5283 122.539 82.7617C136.48 78.1491 150 85.7887 150 99.9831C150 114.215 136.48 121.132 118.658 112.975" stroke="black" stroke-width="7" stroke-linecap="round"/>
<path d="M163 99.3007C163 99.3007 164.088 108.765 170.874 114.109C176.251 118.343 187.858 117.972 194.362 112.695C201.996 106.501 205.106 91.5437 195.21 84.194C184.465 76.2143 168.765 84.334 170.179 95.9126C171.593 107.491 187.547 120.625 207 107.988" stroke="black" stroke-width="7" stroke-linecap="round"/>
<path d="M220 81V109.84M220 117V109.84M220 109.84L249 117M220 109.84L249 81" stroke="black" stroke-width="7" stroke-linecap="round"/>
<path d="M603 6C597.143 15.2572 564.506 20.0369 559.442 35.2528C556.458 44.2201 562.302 52.8149 569.325 58.581C575.434 63.5972 591.02 72.5228 593.161 87.3989C594.507 96.7592 587.527 112.803 572.73 116.541C564.807 118.543 552 116.581 552 103.19C552 93.5782 560.938 82.5928 572.73 87.3989C587.285 93.3307 585.209 117.507 578.093 148" stroke="black" stroke-width="7" stroke-linecap="round"/>
<path d="M378 84.2483C394.063 103.149 417.011 93.6988 413.544 82.8996C411.684 77.1062 400.845 77.2232 395.298 86.9664C389.549 97.063 392.609 109.124 401.241 113.95C409.599 118.623 426.873 116.312 432 96.3989" stroke="black" stroke-width="7" stroke-linecap="round"/>
<path d="M442.38 85.6114C445.747 81.1189 453.602 76.4993 460.335 80.5708C470.304 86.5992 456.497 110.698 452.567 113.96C446.956 118.619 449.481 101.355 465.192 113.96C476.102 122.714 479.692 134.661 479.692 144.154C479.692 161.251 470.154 178.05 458.371 181.695C441.538 186.901 432 175.666 432 163.335C432 151.004 443.409 137.202 450.235 131.275C457.062 125.348 477.167 108.805 494 97.8442" stroke="black" stroke-width="7" stroke-linecap="round"/>
</svg>
