<svg width="868" height="324" viewBox="0 0 868 324" fill="none" xmlns="http://www.w3.org/2000/svg">
<path d="M291.721 91.1357C291.721 91.1357 292.788 119.46 295.456 136.455C298.13 153.494 304.147 187.224 300.258 190.676C296.37 194.129 291.459 177.511 290.389 161.273C289.322 145.087 289.184 105 307.46 98.9587C319.918 94.8403 332 101.661 332 114.335C332 127.042 319.918 133.218 303.992 125.935" stroke="black" stroke-width="7" stroke-linecap="round"/>
<path d="M480 112.911C480 112.911 480.939 121.587 486.8 126.486C491.444 130.367 501.468 130.026 507.085 125.19C513.678 119.512 516.365 105.801 507.818 99.0636C498.538 91.7488 484.979 99.1919 486.2 109.806C487.421 120.419 501.2 132.458 518 120.875" stroke="black" stroke-width="7" stroke-linecap="round"/>
<path d="M586 96.1357V121.771M586 128.136V121.771M586 121.771L612 128.136M586 121.771L612 96.1357" stroke="black" stroke-width="7" stroke-linecap="round"/>
<path d="M349 81.1357V84.1357" stroke="black" stroke-width="7" stroke-linecap="round"/>
<path d="M362 78.1357V81.1357" stroke="black" stroke-width="7" stroke-linecap="round"/>
<path d="M658.43 102.391C638.362 80.1941 621.899 108.579 630.198 119.61C635.11 126.138 646.049 124.984 654.008 121.359C660.062 118.601 663.668 113.96 663.872 111.673C664.076 109.386 662.307 108.397 660.947 108.579C659.722 108.742 658.43 109.588 658.43 111.538C658.43 113.489 660.607 117.188 665.028 118.803C672.852 121.659 668.808 130.244 674 135.136" stroke="black" stroke-width="7" stroke-linecap="round"/>
<path d="M392 105.514C403.216 98.9338 425.692 70.0247 430.96 55.2677C435.977 41.2108 431.041 33.1359 422.4 33.1357C410.89 33.1356 402.965 50.4824 400.854 63.6419C397.018 87.5687 395.837 113.589 404.987 123.159C411.383 129.85 421.515 129.739 429.484 123.159C439.224 115.117 445.029 103.432 439.224 98.9338C434.206 95.0457 428.57 101.586 432.115 106.761C434.963 110.918 447.462 120.197 469 110.792" stroke="black" stroke-width="7" stroke-linecap="round"/>
<path d="M229 100.817C243.278 117.674 263.677 109.245 260.595 99.6137C258.942 94.4467 249.307 94.5511 244.376 103.241C239.266 112.246 241.986 123.003 249.658 127.307C257.088 131.475 272.443 129.414 277 111.654" stroke="black" stroke-width="7" stroke-linecap="round"/>
<path d="M352.841 110.264C364.58 115.257 376.404 107.573 370.54 99.7506C366.206 93.9682 352.492 95.0821 347.594 103.387C342.518 111.994 345.22 122.275 352.841 126.388C360.221 130.372 375.474 128.402 380 111.428" stroke="black" stroke-width="7" stroke-linecap="round"/>
<path d="M527 104.372C527 94.4754 534.469 96.0911 540.323 99.5245C546.091 102.907 555.261 107.805 557.885 102.958C560.509 98.1107 555.954 93.2502 551.426 94.2733C545.168 95.6872 542.843 108.844 543.755 114.066C548.196 139.513 577.062 129.819 568.382 106.593" stroke="black" stroke-width="7" stroke-linecap="round"/>
<path d="M4.01028 136.615C61.1001 119.746 86.0797 137.6 136.571 131.97C188.38 126.193 219.415 100.218 209.006 78.2358C198.473 55.9916 151.975 68.7807 132.745 85.9432C113.514 103.106 100.401 134.68 104.378 139.112C108.355 143.545 114.279 125.405 118.87 109.676C122.561 97.0332 144.212 8.31704 117.216 12.7094C102.357 15.127 82.1399 55.6246 85.4826 100.247C87.6789 129.567 96.0267 151.882 95.8098 180.251" stroke="black" stroke-width="7" stroke-linecap="round"/>
<path d="M825 229C827.116 240.331 829.736 262.375 827.197 260.933C822.315 258.159 830.681 243.095 839.93 236.142C849.18 229.188 863.011 229.197 863.965 246.29C864.941 263.801 845.41 264.832 843.457 249.123" stroke="black" stroke-width="7" stroke-linecap="round"/>
<path d="M489 229C491.17 240.331 493.858 262.375 491.254 260.933C486.246 258.159 494.826 243.095 504.313 236.142C513.8 229.188 527.986 229.197 528.964 246.29C529.965 263.801 509.934 264.832 507.931 249.123" stroke="black" stroke-width="7" stroke-linecap="round"/>
<path d="M179.64 224C179.64 224 180.656 251.192 183.196 267.507C185.743 283.864 191.473 316.245 187.77 319.559C184.066 322.873 179.389 306.92 178.37 291.332C177.354 275.794 177.223 237.31 194.629 231.51C206.493 227.556 218 234.105 218 246.271C218 258.47 206.493 264.399 191.326 257.407" stroke="black" stroke-width="7" stroke-linecap="round"/>
<path d="M655 245.267C655 245.267 655.915 253.68 661.621 258.43C666.142 262.194 675.903 261.864 681.372 257.173C687.792 251.668 690.408 238.372 682.086 231.839C673.05 224.746 659.848 231.964 661.037 242.256C662.226 252.548 675.642 264.222 692 252.99" stroke="black" stroke-width="7" stroke-linecap="round"/>
<path d="M778.313 230.743C777.374 242.166 778 264.134 788.012 260.625C800.527 256.238 809 235.866 809 232.577C809 228.156 801.804 227.094 801.491 233.673C801.239 238.973 804.724 256.421 809 260.625" stroke="black" stroke-width="7" stroke-linecap="round"/>
<path d="M368 238.33C378.779 232.028 400.38 204.336 405.442 190.2C410.264 176.735 405.52 169 397.216 169C386.154 169 378.538 185.616 376.509 198.222C372.822 221.141 371.687 246.066 380.481 255.233C386.628 261.642 396.365 261.536 404.023 255.233C413.384 247.53 418.963 236.336 413.384 232.028C408.562 228.303 403.146 234.568 406.552 239.526C409.289 243.507 421.301 252.395 442 243.387" stroke="black" stroke-width="7" stroke-linecap="round"/>
<path d="M225 232.539C238.684 248.886 258.232 240.712 255.278 231.373C253.694 226.362 244.461 226.463 239.735 234.89C234.838 243.622 237.445 254.053 244.797 258.227C251.918 262.269 266.633 260.27 271 243.048" stroke="black" stroke-width="7" stroke-linecap="round"/>
<path d="M123 232.539C137.278 248.886 157.677 240.712 154.595 231.373C152.942 226.362 143.307 226.463 138.376 234.89C133.266 243.622 135.986 254.053 143.658 258.227C151.088 262.269 166.443 260.27 171 243.048" stroke="black" stroke-width="7" stroke-linecap="round"/>
<path d="M278.873 233.721C281.751 229.834 288.466 225.836 294.222 229.359C302.744 234.576 290.941 255.431 287.582 258.254C282.785 262.286 284.944 247.346 298.374 258.254C307.7 265.83 310.769 276.168 310.769 284.383C310.769 299.179 302.615 313.716 292.543 316.87C278.154 321.376 270 311.653 270 300.982C270 290.311 279.753 278.367 285.588 273.238C291.424 268.109 308.611 253.793 323 244.307" stroke="black" stroke-width="7" stroke-linecap="round"/>
<path d="M581.777 169C584.364 188.589 589.365 232.19 590.058 249.837C590.834 269.597 586.175 268.57 585.399 267.544C582.14 263.231 581 244.448 581 230.59C581 202.105 590.058 174.389 618.266 170.026C643.369 166.144 653.451 187.99 654.756 199.282C656.772 216.732 645.957 232.899 635.346 237.005C618.974 243.341 602.997 235.979 602.997 235.979" stroke="black" stroke-width="7" stroke-linecap="round"/>
<path d="M759.636 230.46C748.702 224.715 739.055 236.923 741.338 249.611C743.62 262.298 760.082 263.495 767 252.484" stroke="black" stroke-width="7" stroke-linecap="round"/>
<path d="M722.353 230.46C710.998 224.715 700.98 236.923 703.351 249.611C705.721 262.298 722.816 263.495 730 252.484" stroke="black" stroke-width="7" stroke-linecap="round"/>
<path d="M470.636 231.46C459.702 225.715 450.055 237.923 452.338 250.611C454.62 263.298 471.082 264.495 478 253.484" stroke="black" stroke-width="7" stroke-linecap="round"/>
<path d="M76 236.943C76.0001 227.33 82.9479 228.899 88.3936 232.235C93.7592 235.521 102.289 240.279 104.73 235.57C107.172 230.861 102.934 226.14 98.7215 227.134C92.9003 228.507 90.738 241.288 91.5858 246.361C95.7169 271.081 122.57 261.664 114.495 239.101" stroke="black" stroke-width="7" stroke-linecap="round"/>
</svg>
